<svg aria-hidden="true" style="position:absolute;width:0;height:0;overflow:hidden" xmlns="http://www.w3.org/2000/svg">
  <defs>
    <symbol id="icon-logo" viewBox="0 0 267 32">
<path d="M216.019 5.3h46.101l4.549-5.287h-66.017l-18.317 31.972h42.782l3.073-5.287h-24.464l4.671-8.056h24.464l2.951-5.287h-24.342l4.549-8.056zM180.737 13.356h-18.195l2.95-5.161c1.23-2.14 2.336-2.895 4.18-2.895s2.459 1.511 1.475 3.399h18.563l1.844-3.399c1.352-2.518 1.352-5.287-1.967-5.287h-32.701c-2.95 0-5.286 0.378-7.008 3.273l-5.778 10.070c-1.598 2.895-1.475 5.287 2.459 5.287h18.809l-3.073 5.538c-0.861 1.511-1.967 2.517-4.549 2.517-2.213 0-2.090-1.511-1.106-3.021h-18.441l-2.213 3.776c-1.352 2.391-0.246 4.531 2.95 4.531h32.455c2.95 0 5.532-1.385 7.008-3.902l5.532-9.44c1.23-2.392 0.615-5.287-3.196-5.287z"></path>
<path d="M259.715 6.231c-1.5 0-2.717 1.208-2.717 2.683 0 1.506 1.217 2.713 2.717 2.713 1.493 0 2.703-1.208 2.703-2.713-0-1.475-1.21-2.683-2.703-2.683zM259.715 11.1c-1.225 0-2.202-0.956-2.202-2.186 0-1.192 0.978-2.156 2.202-2.156 1.209 0 2.187 0.963 2.187 2.156 0 1.23-0.978 2.186-2.187 2.186zM138.813 0.013h-27.783c-3.811 0-8.729 0-11.679 5.287l-12.294 21.398c-1.721 2.895-0.246 5.287 2.95 5.287h32.332c3.32 0 5.409-1.007 7.991-5.287l12.294-21.398c1.598-2.769-0.861-5.287-3.811-5.287zM123.2 8.195l-9.22 15.986c-1.23 2.266-2.336 2.517-5.163 2.517s-3.565-1.007-2.705-2.517l9.343-15.986c1.352-2.392 2.95-2.895 5.286-2.895s3.689 0.755 2.459 2.895zM90.13 0.013h-35.652l-15.367 26.685h-33.93l-5.181 5.287h73.657c4.548 0 6.024-2.266 7.007-4.028l3.688-6.546c0.983-1.762 0.983-3.776-0.983-4.909 1.971 0 4.671-1.385 6.27-4.28l3.688-6.419c1.844-3.147-0.369-5.79-3.196-5.79zM71.813 21.537l-1.844 3.021c-0.491 1.007-1.352 2.14-3.442 2.14h-9.097l4.675-8.056h8.849c1.598 0 1.598 1.511 0.86 2.895zM79.557 8.195l-1.844 3.021c-0.492 1.007-1.352 2.14-3.442 2.14h-9.097l4.671-8.056h8.851c1.598 0 1.598 1.511 0.861 2.895z"></path>
<path d="M261.102 8.212c0-0.252-0.112-0.52-0.335-0.65-0.232-0.13-0.485-0.145-0.739-0.145h-1.322v3.019h0.449v-1.391h0.53l0.866 1.391h0.515l-0.918-1.391c0.537-0.015 0.955-0.237 0.955-0.833zM259.647 8.67h-0.493v-0.91h0.784c0.381 0 0.717 0.053 0.717 0.443 0 0.543-0.582 0.466-1.008 0.466z"></path>
</symbol>
    <symbol id="icon-menu" viewBox="0 0 59 32">
<path d="M58.667 31.971h-58.667v-5.205h58.667v5.205zM58.667 18.958h-58.667v-5.205h58.667v5.205zM58.667 5.946h-58.667v-5.205h58.667v5.205z"></path>
</symbol>
<symbol id="icon-close" viewBox="0 0 32 32">
<path d="M24.122 7.152c0.521 0.521 0.521 1.365 0 1.886l-6.599 6.599 6.599 6.601c0.521 0.521 0.521 1.365 0 1.886s-1.365 0.521-1.886 0l-6.599-6.601-6.601 6.601c-0.521 0.521-1.365 0.521-1.886 0s-0.521-1.365 0-1.886l6.601-6.601-6.601-6.599c-0.521-0.521-0.521-1.365 0-1.886s1.365-0.521 1.886 0l6.601 6.599 6.599-6.599c0.521-0.521 1.365-0.521 1.886 0z"></path>
</symbol>
<symbol id="icon-marker" viewBox="0 0 32 32">
<path d="M32 16c0 8.837-7.163 16-16 16s-16-7.163-16-16c0-8.837 7.163-16 16-16s16 7.163 16 16z"></path>
</symbol>
<symbol id="icon-quote" viewBox="0 0 44 32">
<path d="M0 15.411v-15.411h17.875v11.603c0 12.087-5.958 18.886-17.875 20.397v-6.346c3.010-0.786 5.068-1.934 6.173-3.445 1.167-1.511 1.874-3.777 2.119-6.799h-8.293z"></path>
<path d="M25.645 15.411v-15.411h17.875v11.603c0 12.087-5.958 18.886-17.875 20.397v-6.346c3.010-0.786 5.068-1.934 6.173-3.445 1.167-1.511 1.874-3.777 2.119-6.799h-8.293z"></path>
</symbol>
<symbol id="icon-wave" viewBox="0 0 42 32">
<path d="M1.372 31.561c-0.431 0.116-0.889 0.085-1.372-0.097l0.177-0.469c0.399 0.15 0.749 0.167 1.065 0.082 0.318-0.086 0.622-0.281 0.915-0.589 0.593-0.624 1.107-1.676 1.57-3.059 0.822-2.454 1.446-5.836 2.105-9.403l0-0.001 0-0.001c0.082-0.443 0.164-0.888 0.247-1.335 0.751-4.034 1.581-8.179 2.817-11.317 0.618-1.569 1.345-2.906 2.23-3.853 0.889-0.953 1.947-1.52 3.208-1.52 1.141 0 2.134 0.528 3 1.412 0.863 0.881 1.612 2.126 2.278 3.597 1.332 2.942 2.361 6.854 3.284 10.742 0.222 0.936 0.438 1.87 0.651 2.79l0 0.002 0 0c0.673 2.913 1.313 5.68 2.007 7.888 0.457 1.453 0.932 2.644 1.446 3.468 0.362 0.58 0.72 0.942 1.078 1.11l0.005-0.014c0.399 0.15 0.749 0.167 1.065 0.082 0.318-0.086 0.622-0.28 0.915-0.589 0.593-0.624 1.107-1.676 1.57-3.059 0.822-2.454 1.446-5.836 2.105-9.403v-0l0.002-0.008c0.081-0.44 0.163-0.884 0.246-1.329 0.751-4.034 1.581-8.179 2.817-11.317 0.618-1.569 1.345-2.906 2.23-3.853 0.889-0.953 1.947-1.52 3.208-1.52 1.142 0 2.133 0.528 2.996 1.413 0.859 0.881 1.604 2.127 2.264 3.598 1.321 2.942 2.334 6.855 3.242 10.743 0.219 0.935 0.431 1.869 0.64 2.788l0.001 0.004c0.662 2.913 1.291 5.68 1.977 7.888 0.451 1.453 0.922 2.644 1.433 3.468 0.359 0.579 0.716 0.942 1.073 1.109l0.005-0.015c0.398 0.15 0.751 0.167 1.072 0.082 0.323-0.086 0.634-0.282 0.935-0.591 0.61-0.625 1.147-1.678 1.637-3.061 0.874-2.463 1.565-5.861 2.293-9.443l0.001-0.006c0.087-0.428 0.175-0.859 0.263-1.291 0.826-4.034 1.731-8.179 3.023-11.317 0.646-1.569 1.397-2.905 2.297-3.851 0.905-0.951 1.971-1.518 3.232-1.518 1.141 0 2.134 0.528 3 1.412 0.863 0.881 1.612 2.126 2.278 3.597 1.332 2.942 2.361 6.854 3.284 10.742 0.222 0.937 0.438 1.872 0.651 2.792v0c0.674 2.913 1.313 5.679 2.008 7.887 0.457 1.453 0.932 2.644 1.446 3.468 0.521 0.835 1.035 1.219 1.55 1.219v0.501c-0.79 0-1.434-0.588-1.975-1.455-0.548-0.878-1.039-2.119-1.499-3.583-0.701-2.229-1.347-5.023-2.021-7.941l-0.001-0.004c-0.212-0.916-0.426-1.843-0.646-2.77-0.923-3.891-1.943-7.759-3.253-10.652-0.655-1.446-1.375-2.632-2.179-3.453-0.801-0.818-1.673-1.262-2.642-1.262-1.091 0-2.034 0.485-2.869 1.362-0.84 0.882-1.562 2.154-2.197 3.697-1.272 3.086-2.168 7.184-2.996 11.226-0.089 0.432-0.176 0.864-0.264 1.294l-0.001 0.006c-0.726 3.572-1.424 7.009-2.311 9.508-0.496 1.398-1.063 2.537-1.751 3.243-0.347 0.356-0.733 0.611-1.166 0.726-0.237 0.063-0.483 0.083-0.735 0.058v0.002c-0.79 0-1.432-0.588-1.97-1.456-0.545-0.879-1.031-2.119-1.485-3.583-0.692-2.229-1.327-5.024-1.991-7.942l-0.001-0.003-0.001-0.004c-0.208-0.915-0.418-1.841-0.635-2.766-0.908-3.892-1.913-7.759-3.211-10.652-0.649-1.446-1.365-2.632-2.166-3.453-0.798-0.818-1.667-1.262-2.637-1.262-1.091 0-2.023 0.484-2.841 1.36-0.823 0.882-1.522 2.152-2.13 3.695-1.216 3.086-2.038 7.183-2.791 11.225-0.083 0.447-0.166 0.894-0.248 1.338-0.657 3.558-1.288 6.979-2.122 9.469-0.468 1.398-1.010 2.538-1.682 3.245-0.339 0.357-0.72 0.613-1.148 0.728-0.235 0.063-0.478 0.083-0.728 0.058v0c-0.789 0-1.434-0.588-1.975-1.455-0.548-0.878-1.038-2.119-1.499-3.583-0.701-2.229-1.347-5.023-2.021-7.941l-0-0c-0.212-0.917-0.427-1.846-0.647-2.773-0.924-3.891-1.943-7.759-3.253-10.652-0.655-1.446-1.375-2.632-2.18-3.453-0.801-0.818-1.673-1.262-2.642-1.262-1.091 0-2.023 0.484-2.841 1.36-0.823 0.882-1.522 2.152-2.13 3.695-1.216 3.086-2.038 7.183-2.791 11.225-0.083 0.447-0.166 0.894-0.248 1.338-0.657 3.558-1.288 6.979-2.122 9.469-0.468 1.398-1.010 2.538-1.682 3.245-0.339 0.357-0.72 0.612-1.148 0.728z"></path>
</symbol>


  </defs>
</svg>
